<svg xmlns="http://www.w3.org/2000/svg" xmlns:xlink="http://www.w3.org/1999/xlink" width="1280" zoomAndPan="magnify" viewBox="0 0 960 599.999999" height="800" preserveAspectRatio="xMidYMid meet" version="1.0"><defs><clipPath id="9859ce581d"><path d="M 790.410156 573.105469 L 802.410156 573.105469 L 802.410156 583.605469 L 790.410156 583.605469 Z M 790.410156 573.105469 " clip-rule="nonzero"/></clipPath><clipPath id="926643a789"><path d="M 178 18 L 790 18 L 790 581.96875 L 178 581.96875 Z M 178 18 " clip-rule="nonzero"/></clipPath></defs><rect x="-96" width="1152" fill="#ffffff" y="-60" height="719.999999" fill-opacity="1"/><rect x="-96" width="1152" fill="#ffffff" y="-60" height="719.999999" fill-opacity="1"/><g clip-path="url(#9859ce581d)"><path fill="#ffffff" d="M 799.269531 574.253906 L 796.695312 574.253906 L 796.695312 573.394531 C 796.695312 573.316406 796.667969 573.25 796.613281 573.191406 C 796.558594 573.136719 796.488281 573.109375 796.410156 573.109375 C 796.332031 573.109375 796.265625 573.136719 796.207031 573.191406 C 796.152344 573.25 796.125 573.316406 796.125 573.394531 L 796.125 574.253906 L 793.554688 574.253906 C 793.363281 574.253906 793.183594 574.289062 793.007812 574.359375 C 792.832031 574.433594 792.679688 574.535156 792.542969 574.671875 C 792.410156 574.804688 792.308594 574.960938 792.234375 575.132812 C 792.160156 575.308594 792.125 575.492188 792.125 575.679688 L 792.125 580.824219 C 792.125 581.011719 792.160156 581.195312 792.234375 581.371094 C 792.308594 581.546875 792.410156 581.699219 792.542969 581.832031 C 792.679688 581.96875 792.832031 582.070312 793.007812 582.144531 C 793.183594 582.214844 793.363281 582.25 793.554688 582.253906 L 795.113281 582.253906 L 796.171875 583.839844 C 796.230469 583.925781 796.308594 583.964844 796.410156 583.964844 C 796.511719 583.964844 796.59375 583.925781 796.648438 583.839844 L 797.707031 582.253906 L 799.269531 582.253906 C 799.457031 582.25 799.640625 582.214844 799.816406 582.144531 C 799.988281 582.070312 800.144531 581.96875 800.277344 581.832031 C 800.410156 581.699219 800.515625 581.546875 800.585938 581.371094 C 800.660156 581.195312 800.695312 581.011719 800.695312 580.824219 L 800.695312 575.679688 C 800.695312 575.492188 800.660156 575.308594 800.585938 575.132812 C 800.515625 574.960938 800.410156 574.804688 800.277344 574.671875 C 800.144531 574.535156 799.988281 574.433594 799.816406 574.359375 C 799.640625 574.289062 799.457031 574.253906 799.269531 574.253906 Z M 800.125 580.824219 C 800.125 581.058594 800.042969 581.261719 799.875 581.429688 C 799.707031 581.597656 799.503906 581.679688 799.269531 581.679688 L 797.554688 581.679688 C 797.453125 581.679688 797.371094 581.722656 797.316406 581.808594 L 796.410156 583.164062 L 795.503906 581.808594 C 795.449219 581.722656 795.371094 581.679688 795.269531 581.679688 L 793.554688 581.679688 C 793.316406 581.679688 793.117188 581.597656 792.949219 581.429688 C 792.78125 581.261719 792.695312 581.058594 792.695312 580.824219 L 792.695312 579.964844 L 800.125 579.964844 Z M 800.125 579.394531 L 792.695312 579.394531 L 792.695312 575.679688 C 792.695312 575.445312 792.78125 575.242188 792.949219 575.074219 C 793.117188 574.90625 793.316406 574.824219 793.554688 574.824219 L 799.269531 574.824219 C 799.503906 574.824219 799.707031 574.90625 799.875 575.074219 C 800.042969 575.242188 800.125 575.445312 800.125 575.679688 Z M 795.269531 577.394531 C 795.269531 577.554688 795.210938 577.6875 795.101562 577.800781 C 794.988281 577.910156 794.855469 577.964844 794.695312 577.964844 C 794.539062 577.964844 794.402344 577.910156 794.292969 577.800781 C 794.179688 577.6875 794.125 577.554688 794.125 577.394531 C 794.125 577.238281 794.179688 577.101562 794.292969 576.992188 C 794.402344 576.878906 794.539062 576.824219 794.695312 576.824219 C 794.855469 576.824219 794.988281 576.878906 795.101562 576.992188 C 795.210938 577.101562 795.269531 577.238281 795.269531 577.394531 Z M 798.695312 577.394531 C 798.695312 577.554688 798.640625 577.6875 798.527344 577.800781 C 798.417969 577.910156 798.28125 577.964844 798.125 577.964844 C 797.96875 577.964844 797.832031 577.910156 797.722656 577.800781 C 797.609375 577.6875 797.554688 577.554688 797.554688 577.394531 C 797.554688 577.238281 797.609375 577.101562 797.722656 576.992188 C 797.832031 576.878906 797.96875 576.824219 798.125 576.824219 C 798.28125 576.824219 798.417969 576.878906 798.527344 576.992188 C 798.640625 577.101562 798.695312 577.238281 798.695312 577.394531 Z M 790.980469 576.253906 L 790.980469 578.539062 C 790.980469 578.617188 790.953125 578.683594 790.898438 578.738281 C 790.84375 578.796875 790.777344 578.824219 790.695312 578.824219 C 790.617188 578.824219 790.550781 578.796875 790.496094 578.738281 C 790.4375 578.683594 790.410156 578.617188 790.410156 578.539062 L 790.410156 576.253906 C 790.410156 576.171875 790.4375 576.105469 790.496094 576.050781 C 790.550781 575.996094 790.617188 575.964844 790.695312 575.964844 C 790.777344 575.964844 790.84375 575.996094 790.898438 576.050781 C 790.953125 576.105469 790.980469 576.171875 790.980469 576.253906 Z M 802.410156 576.253906 L 802.410156 578.539062 C 802.410156 578.617188 802.382812 578.683594 802.328125 578.738281 C 802.269531 578.796875 802.203125 578.824219 802.125 578.824219 C 802.046875 578.824219 801.980469 578.796875 801.921875 578.738281 C 801.867188 578.683594 801.839844 578.617188 801.839844 578.539062 L 801.839844 576.253906 C 801.839844 576.171875 801.867188 576.105469 801.921875 576.050781 C 801.980469 575.996094 802.046875 575.964844 802.125 575.964844 C 802.203125 575.964844 802.269531 575.996094 802.328125 576.050781 C 802.382812 576.105469 802.410156 576.171875 802.410156 576.253906 Z M 802.410156 576.253906 " fill-opacity="1" fill-rule="nonzero"/></g><g clip-path="url(#926643a789)"><path fill="#0097b2" d="M 183.132812 205.898438 L 289.46875 134.660156 L 289.46875 28.605469 C 289.46875 22.785156 294.1875 18.070312 300.003906 18.070312 L 355.503906 18.070312 C 361.320312 18.070312 366.039062 22.785156 366.039062 28.605469 L 366.039062 83.363281 L 431.214844 39.699219 C 463.273438 18.238281 504.707031 18.238281 536.765625 39.699219 L 784.84375 205.898438 C 788.699219 208.480469 790.414062 213.285156 789.058594 217.71875 C 787.710938 222.152344 783.621094 225.1875 778.980469 225.1875 L 719.6875 225.1875 L 719.6875 529.246094 C 719.6875 558.289062 696.054688 581.921875 667.011719 581.921875 L 300.96875 581.921875 C 271.921875 581.921875 248.289062 558.289062 248.289062 529.246094 L 248.289062 225.1875 L 189 225.1875 C 184.359375 225.1875 180.269531 222.152344 178.921875 217.71875 C 177.566406 213.285156 179.28125 208.480469 183.132812 205.898438 Z M 483.988281 526.3125 C 581.375 526.3125 660.609375 447.082031 660.609375 349.699219 C 660.609375 252.308594 581.375 173.078125 483.988281 173.078125 C 386.605469 173.078125 307.371094 252.308594 307.371094 349.699219 C 307.371094 447.082031 386.605469 526.3125 483.988281 526.3125 Z M 483.988281 526.3125 " fill-opacity="1" fill-rule="nonzero"/></g><path fill="#0097b2" d="M 415.09375 231.847656 C 431.988281 225.324219 448.9375 226.125 464.109375 234.179688 C 476.554688 240.808594 491.421875 240.808594 503.871094 234.179688 C 519.039062 226.125 535.984375 225.292969 552.886719 231.847656 C 567.929688 237.667969 578.832031 247.832031 584.40625 261.230469 C 591.25 277.671875 589.632812 298.300781 579.746094 320.882812 C 575.722656 330.082031 570.527344 339.238281 564.3125 348.09375 C 559.554688 354.886719 557.5 362.972656 558.535156 370.863281 C 559.648438 379.351562 560.210938 388.078125 560.210938 396.800781 C 560.210938 429.085938 552.675781 459.5625 538.988281 482.605469 C 535.664062 488.214844 529.40625 490.878906 523.039062 489.429688 C 516.667969 487.96875 512.191406 482.8125 511.640625 476.3125 C 507.015625 421.84375 492.6875 397.335938 483.992188 397.335938 C 475.292969 397.335938 460.964844 421.84375 456.339844 476.3125 C 455.789062 482.8125 451.3125 487.96875 444.941406 489.429688 C 443.789062 489.695312 442.636719 489.820312 441.503906 489.820312 C 436.40625 489.820312 431.714844 487.195312 428.992188 482.605469 C 415.304688 459.5625 407.769531 429.085938 407.769531 396.800781 C 407.769531 388.078125 408.332031 379.351562 409.445312 370.875 C 410.480469 362.972656 408.425781 354.886719 403.671875 348.09375 C 397.453125 339.238281 392.257812 330.082031 388.234375 320.882812 C 378.347656 298.300781 376.730469 277.671875 383.574219 261.230469 C 389.148438 247.832031 400.050781 237.667969 415.09375 231.847656 Z M 415.09375 231.847656 " fill-opacity="1" fill-rule="nonzero"/></svg>
