<svg xmlns="http://www.w3.org/2000/svg" xmlns:xlink="http://www.w3.org/1999/xlink" width="1280" zoomAndPan="magnify" viewBox="0 0 960 599.999999" height="800" preserveAspectRatio="xMidYMid meet" version="1.0"><defs><clipPath id="82c6a063ce"><path d="M 790.410156 573.105469 L 802.410156 573.105469 L 802.410156 583.605469 L 790.410156 583.605469 Z M 790.410156 573.105469 " clip-rule="nonzero"/></clipPath><clipPath id="e59511f3e7"><path d="M 138 19.769531 L 798 19.769531 L 798 583.769531 L 138 583.769531 Z M 138 19.769531 " clip-rule="nonzero"/></clipPath></defs><rect x="-96" width="1152" fill="#ffffff" y="-60" height="719.999999" fill-opacity="1"/><rect x="-96" width="1152" fill="#ffffff" y="-60" height="719.999999" fill-opacity="1"/><g clip-path="url(#82c6a063ce)"><path fill="#ffffff" d="M 799.269531 574.253906 L 796.695312 574.253906 L 796.695312 573.394531 C 796.695312 573.316406 796.667969 573.25 796.613281 573.191406 C 796.558594 573.136719 796.488281 573.109375 796.410156 573.109375 C 796.332031 573.109375 796.265625 573.136719 796.207031 573.191406 C 796.152344 573.25 796.125 573.316406 796.125 573.394531 L 796.125 574.253906 L 793.554688 574.253906 C 793.363281 574.253906 793.183594 574.289062 793.007812 574.359375 C 792.832031 574.433594 792.679688 574.535156 792.542969 574.671875 C 792.410156 574.804688 792.308594 574.960938 792.234375 575.132812 C 792.160156 575.308594 792.125 575.492188 792.125 575.679688 L 792.125 580.824219 C 792.125 581.011719 792.160156 581.195312 792.234375 581.371094 C 792.308594 581.546875 792.410156 581.699219 792.542969 581.832031 C 792.679688 581.96875 792.832031 582.070312 793.007812 582.144531 C 793.183594 582.214844 793.363281 582.25 793.554688 582.253906 L 795.113281 582.253906 L 796.171875 583.839844 C 796.230469 583.925781 796.308594 583.964844 796.410156 583.964844 C 796.511719 583.964844 796.59375 583.925781 796.648438 583.839844 L 797.707031 582.253906 L 799.269531 582.253906 C 799.457031 582.25 799.640625 582.214844 799.816406 582.144531 C 799.988281 582.070312 800.144531 581.96875 800.277344 581.832031 C 800.410156 581.699219 800.515625 581.546875 800.585938 581.371094 C 800.660156 581.195312 800.695312 581.011719 800.695312 580.824219 L 800.695312 575.679688 C 800.695312 575.492188 800.660156 575.308594 800.585938 575.132812 C 800.515625 574.960938 800.410156 574.804688 800.277344 574.671875 C 800.144531 574.535156 799.988281 574.433594 799.816406 574.359375 C 799.640625 574.289062 799.457031 574.253906 799.269531 574.253906 Z M 800.125 580.824219 C 800.125 581.058594 800.042969 581.261719 799.875 581.429688 C 799.707031 581.597656 799.503906 581.679688 799.269531 581.679688 L 797.554688 581.679688 C 797.453125 581.679688 797.371094 581.722656 797.316406 581.808594 L 796.410156 583.164062 L 795.503906 581.808594 C 795.449219 581.722656 795.371094 581.679688 795.269531 581.679688 L 793.554688 581.679688 C 793.316406 581.679688 793.117188 581.597656 792.949219 581.429688 C 792.78125 581.261719 792.695312 581.058594 792.695312 580.824219 L 792.695312 579.964844 L 800.125 579.964844 Z M 800.125 579.394531 L 792.695312 579.394531 L 792.695312 575.679688 C 792.695312 575.445312 792.78125 575.242188 792.949219 575.074219 C 793.117188 574.90625 793.316406 574.824219 793.554688 574.824219 L 799.269531 574.824219 C 799.503906 574.824219 799.707031 574.90625 799.875 575.074219 C 800.042969 575.242188 800.125 575.445312 800.125 575.679688 Z M 795.269531 577.394531 C 795.269531 577.554688 795.210938 577.6875 795.101562 577.800781 C 794.988281 577.910156 794.855469 577.964844 794.695312 577.964844 C 794.539062 577.964844 794.402344 577.910156 794.292969 577.800781 C 794.179688 577.6875 794.125 577.554688 794.125 577.394531 C 794.125 577.238281 794.179688 577.101562 794.292969 576.992188 C 794.402344 576.878906 794.539062 576.824219 794.695312 576.824219 C 794.855469 576.824219 794.988281 576.878906 795.101562 576.992188 C 795.210938 577.101562 795.269531 577.238281 795.269531 577.394531 Z M 798.695312 577.394531 C 798.695312 577.554688 798.640625 577.6875 798.527344 577.800781 C 798.417969 577.910156 798.28125 577.964844 798.125 577.964844 C 797.96875 577.964844 797.832031 577.910156 797.722656 577.800781 C 797.609375 577.6875 797.554688 577.554688 797.554688 577.394531 C 797.554688 577.238281 797.609375 577.101562 797.722656 576.992188 C 797.832031 576.878906 797.96875 576.824219 798.125 576.824219 C 798.28125 576.824219 798.417969 576.878906 798.527344 576.992188 C 798.640625 577.101562 798.695312 577.238281 798.695312 577.394531 Z M 790.980469 576.253906 L 790.980469 578.539062 C 790.980469 578.617188 790.953125 578.683594 790.898438 578.738281 C 790.84375 578.796875 790.777344 578.824219 790.695312 578.824219 C 790.617188 578.824219 790.550781 578.796875 790.496094 578.738281 C 790.4375 578.683594 790.410156 578.617188 790.410156 578.539062 L 790.410156 576.253906 C 790.410156 576.171875 790.4375 576.105469 790.496094 576.050781 C 790.550781 575.996094 790.617188 575.964844 790.695312 575.964844 C 790.777344 575.964844 790.84375 575.996094 790.898438 576.050781 C 790.953125 576.105469 790.980469 576.171875 790.980469 576.253906 Z M 802.410156 576.253906 L 802.410156 578.539062 C 802.410156 578.617188 802.382812 578.683594 802.328125 578.738281 C 802.269531 578.796875 802.203125 578.824219 802.125 578.824219 C 802.046875 578.824219 801.980469 578.796875 801.921875 578.738281 C 801.867188 578.683594 801.839844 578.617188 801.839844 578.539062 L 801.839844 576.253906 C 801.839844 576.171875 801.867188 576.105469 801.921875 576.050781 C 801.980469 575.996094 802.046875 575.964844 802.125 575.964844 C 802.203125 575.964844 802.269531 575.996094 802.328125 576.050781 C 802.382812 576.105469 802.410156 576.171875 802.410156 576.253906 Z M 802.410156 576.253906 " fill-opacity="1" fill-rule="nonzero"/></g><g clip-path="url(#e59511f3e7)"><path fill="#0097b2" d="M 758.792969 19.851562 L 177.335938 19.851562 C 155.984375 19.851562 138.605469 37.253906 138.605469 58.585938 L 138.605469 458.550781 C 138.605469 479.941406 155.984375 497.324219 177.335938 497.324219 L 366.445312 497.324219 L 366.445312 543.898438 L 361.402344 543.898438 C 350.386719 543.898438 341.40625 552.878906 341.40625 563.894531 C 341.40625 574.949219 350.386719 583.929688 361.402344 583.929688 L 574.664062 583.929688 C 585.722656 583.929688 594.660156 574.949219 594.660156 563.894531 C 594.660156 552.878906 585.722656 543.898438 574.664062 543.898438 L 569.683594 543.898438 L 569.683594 497.324219 L 758.792969 497.324219 C 780.144531 497.324219 797.523438 479.941406 797.523438 458.550781 L 797.523438 58.585938 C 797.523438 37.253906 780.144531 19.851562 758.792969 19.851562 Z M 767.523438 458.527344 C 767.523438 463.347656 763.589844 467.300781 758.792969 467.300781 L 177.335938 467.300781 C 172.519531 467.300781 168.605469 463.367188 168.605469 458.527344 L 168.605469 58.585938 C 168.605469 53.808594 172.5 49.855469 177.335938 49.855469 L 758.792969 49.855469 C 763.570312 49.855469 767.523438 53.789062 767.523438 58.585938 Z M 767.523438 458.527344 " fill-opacity="1" fill-rule="nonzero"/></g><path fill="#0097b2" d="M 263.078125 281.054688 L 223.113281 281.054688 C 212.054688 281.054688 203.078125 289.988281 203.078125 301.046875 L 203.078125 431.84375 L 283.074219 431.84375 L 283.074219 301.046875 C 283.074219 289.988281 274.09375 281.054688 263.078125 281.054688 Z M 263.078125 281.054688 " fill-opacity="1" fill-rule="nonzero"/><path fill="#0097b2" d="M 375.570312 241.886719 L 335.601562 241.886719 C 324.542969 241.886719 315.566406 250.867188 315.566406 261.882812 L 315.566406 431.84375 L 395.5625 431.84375 L 395.5625 261.882812 C 395.5625 250.84375 386.585938 241.886719 375.570312 241.886719 Z M 375.570312 241.886719 " fill-opacity="1" fill-rule="nonzero"/><path fill="#0097b2" d="M 488.058594 318.136719 L 448.089844 318.136719 C 437.035156 318.136719 428.054688 327.117188 428.054688 338.132812 L 428.054688 431.84375 L 508.050781 431.84375 L 508.050781 338.132812 C 508.03125 327.117188 499.074219 318.136719 488.058594 318.136719 Z M 488.058594 318.136719 " fill-opacity="1" fill-rule="nonzero"/><path fill="#0097b2" d="M 600.546875 221.894531 L 560.582031 221.894531 C 549.523438 221.894531 540.546875 230.871094 540.546875 241.886719 L 540.546875 431.84375 L 620.542969 431.84375 L 620.542969 241.886719 C 620.523438 230.871094 611.605469 221.894531 600.546875 221.894531 Z M 600.546875 221.894531 " fill-opacity="1" fill-rule="nonzero"/><path fill="#0097b2" d="M 713.015625 181.925781 L 673.050781 181.925781 C 661.992188 181.925781 653.015625 190.863281 653.015625 201.921875 L 653.015625 431.84375 L 733.011719 431.84375 L 733.011719 201.921875 C 733.011719 190.84375 724.09375 181.925781 713.015625 181.925781 Z M 713.015625 181.925781 " fill-opacity="1" fill-rule="nonzero"/><path fill="#0097b2" d="M 243.085938 233.445312 C 256.324219 233.445312 267.054688 222.675781 267.054688 209.4375 C 267.054688 209.3125 267.011719 209.148438 267.011719 209.023438 L 336.589844 184.808594 C 340.976562 190.511719 347.8125 194.261719 355.574219 194.261719 C 361.09375 194.261719 366.078125 192.324219 370.132812 189.195312 L 445.0625 239.992188 C 444.507812 242.09375 444.054688 244.257812 444.054688 246.5 C 444.054688 259.78125 454.785156 270.511719 468.066406 270.511719 C 481.304688 270.511719 492.03125 259.78125 492.03125 246.5 C 492.03125 243.289062 491.394531 240.21875 490.21875 237.421875 L 568.160156 170.746094 C 571.78125 172.949219 576.003906 174.289062 580.554688 174.289062 C 593.792969 174.289062 604.523438 163.558594 604.523438 150.277344 C 604.523438 150.113281 604.480469 149.90625 604.480469 149.761719 L 674.183594 124.949219 C 678.570312 130.613281 685.363281 134.320312 693.042969 134.320312 C 706.285156 134.320312 717.054688 123.550781 717.054688 110.308594 C 717.054688 97.027344 706.285156 86.300781 693.042969 86.300781 C 679.761719 86.300781 669.035156 97.027344 669.035156 110.308594 C 669.035156 110.476562 669.074219 110.679688 669.117188 110.824219 L 599.414062 135.636719 C 595.03125 129.976562 588.234375 126.269531 580.554688 126.269531 C 567.273438 126.269531 556.546875 136.996094 556.546875 150.277344 C 556.546875 153.492188 557.222656 156.597656 558.355469 159.398438 L 480.460938 226.074219 C 476.796875 223.871094 472.613281 222.53125 468.066406 222.53125 C 462.546875 222.53125 457.523438 224.46875 453.464844 227.597656 L 378.535156 176.757812 C 379.132812 174.699219 379.542969 172.535156 379.542969 170.25 C 379.542969 157.011719 368.816406 146.285156 355.574219 146.285156 C 342.292969 146.285156 331.566406 157.011719 331.566406 170.25 C 331.566406 170.417969 331.605469 170.539062 331.605469 170.683594 L 262.027344 194.898438 C 257.644531 189.195312 250.808594 185.40625 243.085938 185.40625 C 229.804688 185.40625 219.074219 196.175781 219.074219 209.414062 C 219.074219 222.65625 229.824219 233.445312 243.085938 233.445312 Z M 243.085938 233.445312 " fill-opacity="1" fill-rule="nonzero"/></svg>