<svg xmlns="http://www.w3.org/2000/svg" xmlns:xlink="http://www.w3.org/1999/xlink" width="1280" zoomAndPan="magnify" viewBox="0 0 960 599.999999" height="800" preserveAspectRatio="xMidYMid meet" version="1.0"><defs><clipPath id="b7f1947387"><path d="M 790.410156 573.105469 L 802.410156 573.105469 L 802.410156 583.605469 L 790.410156 583.605469 Z M 790.410156 573.105469 " clip-rule="nonzero"/></clipPath><clipPath id="a7d1a263cb"><path d="M 170.792969 451 L 802.292969 451 L 802.292969 578.660156 L 170.792969 578.660156 Z M 170.792969 451 " clip-rule="nonzero"/></clipPath><clipPath id="8b64824de8"><path d="M 497 11.660156 L 793 11.660156 L 793 307 L 497 307 Z M 497 11.660156 " clip-rule="nonzero"/></clipPath></defs><rect x="-96" width="1152" fill="#ffffff" y="-60" height="719.999999" fill-opacity="1"/><rect x="-96" width="1152" fill="#ffffff" y="-60" height="719.999999" fill-opacity="1"/><g clip-path="url(#b7f1947387)"><path fill="#ffffff" d="M 799.269531 574.253906 L 796.695312 574.253906 L 796.695312 573.394531 C 796.695312 573.316406 796.667969 573.25 796.613281 573.191406 C 796.558594 573.136719 796.488281 573.109375 796.410156 573.109375 C 796.332031 573.109375 796.265625 573.136719 796.207031 573.191406 C 796.152344 573.25 796.125 573.316406 796.125 573.394531 L 796.125 574.253906 L 793.554688 574.253906 C 793.363281 574.253906 793.183594 574.289062 793.007812 574.359375 C 792.832031 574.433594 792.679688 574.535156 792.542969 574.671875 C 792.410156 574.804688 792.308594 574.960938 792.234375 575.132812 C 792.160156 575.308594 792.125 575.492188 792.125 575.679688 L 792.125 580.824219 C 792.125 581.011719 792.160156 581.195312 792.234375 581.371094 C 792.308594 581.546875 792.410156 581.699219 792.542969 581.832031 C 792.679688 581.96875 792.832031 582.070312 793.007812 582.144531 C 793.183594 582.214844 793.363281 582.25 793.554688 582.253906 L 795.113281 582.253906 L 796.171875 583.839844 C 796.230469 583.925781 796.308594 583.964844 796.410156 583.964844 C 796.511719 583.964844 796.59375 583.925781 796.648438 583.839844 L 797.707031 582.253906 L 799.269531 582.253906 C 799.457031 582.25 799.640625 582.214844 799.816406 582.144531 C 799.988281 582.070312 800.144531 581.96875 800.277344 581.832031 C 800.410156 581.699219 800.515625 581.546875 800.585938 581.371094 C 800.660156 581.195312 800.695312 581.011719 800.695312 580.824219 L 800.695312 575.679688 C 800.695312 575.492188 800.660156 575.308594 800.585938 575.132812 C 800.515625 574.960938 800.410156 574.804688 800.277344 574.671875 C 800.144531 574.535156 799.988281 574.433594 799.816406 574.359375 C 799.640625 574.289062 799.457031 574.253906 799.269531 574.253906 Z M 800.125 580.824219 C 800.125 581.058594 800.042969 581.261719 799.875 581.429688 C 799.707031 581.597656 799.503906 581.679688 799.269531 581.679688 L 797.554688 581.679688 C 797.453125 581.679688 797.371094 581.722656 797.316406 581.808594 L 796.410156 583.164062 L 795.503906 581.808594 C 795.449219 581.722656 795.371094 581.679688 795.269531 581.679688 L 793.554688 581.679688 C 793.316406 581.679688 793.117188 581.597656 792.949219 581.429688 C 792.78125 581.261719 792.695312 581.058594 792.695312 580.824219 L 792.695312 579.964844 L 800.125 579.964844 Z M 800.125 579.394531 L 792.695312 579.394531 L 792.695312 575.679688 C 792.695312 575.445312 792.78125 575.242188 792.949219 575.074219 C 793.117188 574.90625 793.316406 574.824219 793.554688 574.824219 L 799.269531 574.824219 C 799.503906 574.824219 799.707031 574.90625 799.875 575.074219 C 800.042969 575.242188 800.125 575.445312 800.125 575.679688 Z M 795.269531 577.394531 C 795.269531 577.554688 795.210938 577.6875 795.101562 577.800781 C 794.988281 577.910156 794.855469 577.964844 794.695312 577.964844 C 794.539062 577.964844 794.402344 577.910156 794.292969 577.800781 C 794.179688 577.6875 794.125 577.554688 794.125 577.394531 C 794.125 577.238281 794.179688 577.101562 794.292969 576.992188 C 794.402344 576.878906 794.539062 576.824219 794.695312 576.824219 C 794.855469 576.824219 794.988281 576.878906 795.101562 576.992188 C 795.210938 577.101562 795.269531 577.238281 795.269531 577.394531 Z M 798.695312 577.394531 C 798.695312 577.554688 798.640625 577.6875 798.527344 577.800781 C 798.417969 577.910156 798.28125 577.964844 798.125 577.964844 C 797.96875 577.964844 797.832031 577.910156 797.722656 577.800781 C 797.609375 577.6875 797.554688 577.554688 797.554688 577.394531 C 797.554688 577.238281 797.609375 577.101562 797.722656 576.992188 C 797.832031 576.878906 797.96875 576.824219 798.125 576.824219 C 798.28125 576.824219 798.417969 576.878906 798.527344 576.992188 C 798.640625 577.101562 798.695312 577.238281 798.695312 577.394531 Z M 790.980469 576.253906 L 790.980469 578.539062 C 790.980469 578.617188 790.953125 578.683594 790.898438 578.738281 C 790.84375 578.796875 790.777344 578.824219 790.695312 578.824219 C 790.617188 578.824219 790.550781 578.796875 790.496094 578.738281 C 790.4375 578.683594 790.410156 578.617188 790.410156 578.539062 L 790.410156 576.253906 C 790.410156 576.171875 790.4375 576.105469 790.496094 576.050781 C 790.550781 575.996094 790.617188 575.964844 790.695312 575.964844 C 790.777344 575.964844 790.84375 575.996094 790.898438 576.050781 C 790.953125 576.105469 790.980469 576.171875 790.980469 576.253906 Z M 802.410156 576.253906 L 802.410156 578.539062 C 802.410156 578.617188 802.382812 578.683594 802.328125 578.738281 C 802.269531 578.796875 802.203125 578.824219 802.125 578.824219 C 802.046875 578.824219 801.980469 578.796875 801.921875 578.738281 C 801.867188 578.683594 801.839844 578.617188 801.839844 578.539062 L 801.839844 576.253906 C 801.839844 576.171875 801.867188 576.105469 801.921875 576.050781 C 801.980469 575.996094 802.046875 575.964844 802.125 575.964844 C 802.203125 575.964844 802.269531 575.996094 802.328125 576.050781 C 802.382812 576.105469 802.410156 576.171875 802.410156 576.253906 Z M 802.410156 576.253906 " fill-opacity="1" fill-rule="nonzero"/></g><path fill="#9dc6fb" d="M 451.964844 349.074219 L 451.964844 552.320312 C 451.964844 557.226562 447.988281 561.203125 443.085938 561.203125 L 309.65625 561.203125 C 304.75 561.203125 300.777344 557.226562 300.777344 552.320312 C 300.777344 547.417969 304.75 543.4375 309.65625 543.4375 L 434.207031 543.4375 L 434.207031 349.074219 C 434.207031 344.167969 438.179688 340.191406 443.085938 340.191406 C 447.988281 340.191406 451.964844 344.167969 451.964844 349.074219 Z M 663.429688 535.707031 L 538.84375 535.707031 L 538.84375 349.074219 C 538.84375 344.167969 534.867188 340.191406 529.964844 340.191406 C 525.058594 340.191406 521.085938 344.167969 521.085938 349.074219 L 521.085938 544.589844 C 521.085938 549.496094 525.058594 553.472656 529.964844 553.472656 L 663.429688 553.472656 C 668.332031 553.472656 672.308594 549.496094 672.308594 544.589844 C 672.308594 539.683594 668.332031 535.707031 663.429688 535.707031 Z M 365.839844 477.847656 L 365.839844 349.074219 C 365.839844 344.167969 361.863281 340.191406 356.960938 340.191406 C 352.054688 340.191406 348.082031 344.167969 348.082031 349.074219 L 348.082031 468.964844 L 223.53125 468.964844 C 218.625 468.964844 214.652344 472.941406 214.652344 477.847656 C 214.652344 482.753906 218.625 486.730469 223.53125 486.730469 L 356.960938 486.730469 C 361.863281 486.730469 365.839844 482.753906 365.839844 477.847656 Z M 749.519531 468.964844 L 624.96875 468.964844 L 624.96875 349.074219 C 624.96875 344.167969 620.992188 340.191406 616.089844 340.191406 C 611.1875 340.191406 607.210938 344.167969 607.210938 349.074219 L 607.210938 477.847656 C 607.210938 482.753906 611.1875 486.730469 616.089844 486.730469 L 749.519531 486.730469 C 754.421875 486.730469 758.398438 482.753906 758.398438 477.847656 C 758.398438 472.941406 754.421875 468.964844 749.519531 468.964844 Z M 749.519531 468.964844 " fill-opacity="1" fill-rule="nonzero"/><g clip-path="url(#a7d1a263cb)"><path fill="#0095ff" d="M 309.65625 552.320312 C 309.65625 566.921875 297.828125 578.714844 283.269531 578.714844 C 268.714844 578.714844 256.886719 566.921875 256.886719 552.320312 C 256.886719 537.757812 268.710938 525.960938 283.269531 525.960938 C 297.828125 525.960938 309.65625 537.757812 309.65625 552.320312 Z M 689.777344 518.195312 C 675.21875 518.195312 663.429688 529.992188 663.429688 544.589844 C 663.429688 559.152344 675.21875 570.949219 689.777344 570.949219 C 704.371094 570.949219 716.160156 559.152344 716.160156 544.589844 C 716.160156 529.992188 704.371094 518.195312 689.777344 518.195312 Z M 197.144531 451.453125 C 182.585938 451.453125 170.796875 463.246094 170.796875 477.847656 C 170.796875 492.410156 182.585938 504.207031 197.144531 504.207031 C 211.738281 504.207031 223.53125 492.414062 223.53125 477.847656 C 223.53125 463.25 211.738281 451.453125 197.144531 451.453125 Z M 775.902344 451.453125 C 761.34375 451.453125 749.515625 463.246094 749.515625 477.847656 C 749.515625 492.410156 761.34375 504.207031 775.902344 504.207031 C 790.460938 504.207031 802.285156 492.414062 802.285156 477.847656 C 802.285156 463.25 790.460938 451.453125 775.902344 451.453125 Z M 775.902344 451.453125 " fill-opacity="1" fill-rule="evenodd"/></g><g clip-path="url(#8b64824de8)"><path fill="#73bcff" d="M 645.0625 306.136719 C 726.082031 306.136719 792.183594 240.007812 792.183594 158.917969 C 792.183594 77.863281 726.082031 11.730469 645.0625 11.730469 C 564.003906 11.730469 497.9375 77.863281 497.9375 158.917969 C 497.9375 240.007812 564.003906 306.136719 645.0625 306.136719 Z M 645.0625 306.136719 " fill-opacity="1" fill-rule="evenodd"/></g><path fill="#0095ff" d="M 645.0625 294.378906 C 719.648438 294.378906 780.46875 233.535156 780.46875 158.917969 C 780.46875 84.335938 719.648438 23.492188 645.0625 23.492188 C 570.472656 23.492188 509.65625 84.335938 509.65625 158.917969 C 509.65625 233.535156 570.472656 294.378906 645.0625 294.378906 Z M 645.0625 294.378906 " fill-opacity="1" fill-rule="evenodd"/><path fill="#73bcff" d="M 780.46875 150.035156 L 704.113281 150.035156 C 703.742188 135.109375 702.441406 120.140625 700.234375 105.875 L 765.515625 105.875 C 770.417969 105.875 774.394531 101.898438 774.394531 96.992188 C 774.394531 92.089844 770.417969 88.113281 765.515625 88.113281 L 696.933594 88.113281 C 687.792969 46.476562 670.21875 14.609375 645.0625 14.609375 C 619.902344 14.609375 602.328125 46.476562 593.191406 88.113281 L 524.609375 88.113281 C 519.703125 88.113281 515.730469 92.089844 515.730469 96.992188 C 515.730469 101.898438 519.703125 105.875 524.609375 105.875 L 589.886719 105.875 C 587.683594 120.140625 586.378906 135.109375 586.007812 150.035156 L 509.652344 150.035156 C 504.75 150.035156 500.773438 154.011719 500.773438 158.917969 C 500.773438 163.820312 504.75 167.796875 509.652344 167.796875 L 586.007812 167.796875 C 586.378906 182.722656 587.683594 197.691406 589.886719 211.957031 L 524.605469 211.957031 C 519.703125 211.957031 515.726562 215.933594 515.726562 220.839844 C 515.726562 225.742188 519.703125 229.71875 524.605469 229.71875 L 593.1875 229.71875 C 602.324219 271.375 619.898438 303.257812 645.0625 303.257812 C 670.222656 303.257812 687.796875 271.375 696.9375 229.71875 L 765.515625 229.71875 C 770.417969 229.71875 774.394531 225.742188 774.394531 220.839844 C 774.394531 215.933594 770.417969 211.957031 765.515625 211.957031 L 700.234375 211.957031 C 702.441406 197.691406 703.742188 182.722656 704.113281 167.796875 L 780.46875 167.796875 C 785.371094 167.796875 789.347656 163.820312 789.347656 158.917969 C 789.347656 154.011719 785.371094 150.035156 780.46875 150.035156 Z M 645.0625 32.371094 C 656.257812 32.371094 670.3125 52.585938 678.832031 88.113281 L 611.289062 88.113281 C 619.808594 52.585938 633.863281 32.371094 645.0625 32.371094 Z M 607.726562 105.875 L 682.398438 105.875 C 684.558594 119.078125 685.96875 133.863281 686.355469 150.035156 L 603.769531 150.035156 C 604.152344 133.863281 605.5625 119.078125 607.726562 105.875 Z M 645.0625 285.496094 C 633.859375 285.496094 619.804688 265.269531 611.285156 229.722656 L 678.835938 229.722656 C 670.320312 265.269531 656.261719 285.496094 645.0625 285.496094 Z M 682.402344 211.957031 L 607.722656 211.957031 C 605.5625 198.757812 604.152344 183.972656 603.769531 167.796875 L 686.355469 167.796875 C 685.96875 183.972656 684.558594 198.757812 682.402344 211.957031 Z M 682.402344 211.957031 " fill-opacity="1" fill-rule="nonzero"/><path fill="#50d1dd" d="M 656.886719 263.09375 L 681.617188 263.09375 C 715.980469 263.09375 744.089844 291.25 744.089844 325.628906 C 744.089844 360.003906 715.980469 388.125 681.617188 388.125 C 560.910156 388.125 440.421875 388.125 319.863281 388.125 C 269.863281 388.125 228.957031 347.203125 228.957031 297.183594 C 228.957031 247.199219 269.863281 206.238281 319.863281 206.238281 L 344.199219 206.238281 C 343.765625 202.535156 343.550781 198.722656 343.550781 194.875 C 343.550781 134.210938 397.398438 85.019531 463.824219 85.019531 C 529.925781 85.019531 583.59375 133.78125 584.0625 194.121094 C 588.050781 193.367188 592.148438 193.003906 596.390625 193.003906 C 630.71875 193.003906 658.578125 218.429688 658.578125 249.824219 C 658.574219 254.390625 658 258.851562 656.886719 263.09375 Z M 656.886719 263.09375 " fill-opacity="1" fill-rule="evenodd"/><path fill="#25bbcc" d="M 656.886719 263.09375 L 681.617188 263.09375 C 715.980469 263.09375 744.089844 291.25 744.089844 325.628906 C 744.089844 349.179688 730.898438 369.824219 711.523438 380.46875 C 718.820312 370.21875 723.132812 357.707031 723.132812 344.253906 C 723.132812 309.84375 695.023438 281.722656 660.660156 281.722656 L 635.929688 281.722656 C 637.046875 277.476562 637.621094 273.019531 637.621094 268.453125 C 637.621094 237.058594 609.800781 211.636719 575.433594 211.636719 C 571.230469 211.636719 567.097656 211.992188 563.105469 212.75 C 562.636719 152.410156 509.007812 103.648438 442.867188 103.648438 C 415.511719 103.648438 390.28125 111.988281 370.078125 126.015625 C 392.148438 101.019531 425.9375 85.019531 463.824219 85.019531 C 529.925781 85.019531 583.59375 133.78125 584.0625 194.121094 C 588.050781 193.367188 592.148438 193.007812 596.390625 193.007812 C 630.71875 193.007812 658.578125 218.429688 658.578125 249.824219 C 658.574219 254.390625 658 258.851562 656.886719 263.09375 Z M 656.886719 263.09375 " fill-opacity="1" fill-rule="evenodd"/><path fill="#e8f0fe" d="M 571.105469 256.214844 C 569.382812 257.902344 567.140625 258.742188 564.902344 258.742188 C 562.59375 258.742188 560.289062 257.847656 558.550781 256.066406 C 539.539062 236.597656 514.09375 225.875 486.902344 225.875 C 459.699219 225.875 434.265625 236.597656 415.292969 256.0625 C 411.867188 259.574219 406.25 259.644531 402.734375 256.21875 C 399.226562 252.792969 399.15625 247.171875 402.578125 243.660156 C 424.925781 220.734375 454.871094 208.113281 486.902344 208.113281 C 518.914062 208.113281 548.871094 220.734375 571.253906 243.65625 C 574.679688 247.164062 574.613281 252.785156 571.105469 256.214844 Z M 486.902344 236.699219 C 462.523438 236.699219 439.746094 246.355469 422.761719 263.886719 C 419.347656 267.410156 419.4375 273.035156 422.957031 276.449219 C 424.679688 278.117188 426.910156 278.953125 429.136719 278.953125 C 431.453125 278.953125 433.769531 278.046875 435.511719 276.25 C 449.121094 262.199219 467.371094 254.464844 486.898438 254.464844 C 506.460938 254.464844 524.707031 262.199219 538.28125 276.242188 C 541.6875 279.769531 547.308594 279.863281 550.835938 276.457031 C 554.359375 273.046875 554.453125 267.421875 551.046875 263.894531 C 534.101562 246.359375 511.320312 236.699219 486.902344 236.699219 Z M 486.902344 265.285156 C 470.101562 265.285156 454.476562 272.003906 442.898438 284.199219 C 439.523438 287.757812 439.667969 293.378906 443.222656 296.753906 C 446.78125 300.132812 452.398438 299.988281 455.777344 296.429688 C 463.964844 287.800781 475.019531 283.050781 486.902344 283.050781 C 498.8125 283.050781 509.863281 287.796875 518.011719 296.417969 C 519.761719 298.265625 522.109375 299.195312 524.464844 299.195312 C 526.65625 299.195312 528.847656 298.390625 530.566406 296.765625 C 534.128906 293.394531 534.285156 287.773438 530.914062 284.210938 C 519.375 272.007812 503.746094 265.285156 486.902344 265.285156 Z M 486.902344 310.273438 C 478.238281 310.273438 471.15625 317.359375 471.15625 326.023438 C 471.15625 334.691406 478.238281 341.773438 486.902344 341.773438 C 495.601562 341.773438 502.644531 334.691406 502.644531 326.023438 C 502.644531 317.355469 495.601562 310.273438 486.902344 310.273438 Z M 486.902344 310.273438 " fill-opacity="1" fill-rule="evenodd"/></svg>
